<svg width="640" height="360" viewBox="0 0 640 360" xmlns="http://www.w3.org/2000/svg">
  <defs>
    <linearGradient id="grad-labs" x1="0%" y1="0%" x2="100%" y2="0%">
      <stop offset="0%" stop-color="#36d1dc"/>
      <stop offset="100%" stop-color="#10b981"/>
    </linearGradient>
  </defs>
  <rect width="640" height="360" rx="24" fill="#0a0b0f"/>
  <rect x="48" y="56" width="544" height="248" rx="24" fill="#12141a" opacity="0.95"/>
  <rect x="80" y="88" width="256" height="184" rx="20" fill="#1a1d26"/>
  <rect x="360" y="88" width="224" height="28" rx="14" fill="#ffffff" opacity="0.35"/>
  <rect x="360" y="132" width="192" height="16" rx="8" fill="#ffffff" opacity="0.25"/>
  <rect x="360" y="160" width="208" height="16" rx="8" fill="#ffffff" opacity="0.2"/>
  <rect x="360" y="200" width="224" height="12" rx="6" fill="#ffffff" opacity="0.15"/>
  <rect x="360" y="224" width="176" height="12" rx="6" fill="#ffffff" opacity="0.12"/>
  <rect x="360" y="248" width="128" height="12" rx="6" fill="#ffffff" opacity="0.1"/>
  <circle cx="160" cy="180" r="44" fill="url(#grad-labs)" opacity="0.6"/>
  <path d="M120 220 Q160 180 200 220" stroke="#36d1dc" stroke-width="6" stroke-linecap="round"/>
  <path d="M140 200 L160 176 L180 200" stroke="#ffffff" stroke-width="4" stroke-linecap="round" stroke-linejoin="round" opacity="0.6"/>
  <rect x="80" y="280" width="96" height="12" rx="6" fill="#36d1dc" opacity="0.4"/>
  <rect x="192" y="280" width="112" height="12" rx="6" fill="#36d1dc" opacity="0.25"/>
</svg>
